<?xml version="1.0" encoding="UTF-8"?>
<svg id="Layer_1" xmlns="http://www.w3.org/2000/svg" xmlns:xlink="http://www.w3.org/1999/xlink" viewBox="0 0 146.18 248.58">
  <defs>
    <style>
      .cls-1 {
        fill: #1e1c1d;
      }

      .cls-2 {
        fill: url(#linear-gradient);
      }

      .cls-3 {
        fill: #414042;
      }
    </style>
    <linearGradient id="linear-gradient" x1="27.89" y1="142.28" x2="72.55" y2="142.28" gradientUnits="userSpaceOnUse">
      <stop offset="0" stop-color="#8ecfdc"/>
      <stop offset=".46" stop-color="#8ccdda"/>
      <stop offset=".62" stop-color="#85c7d6"/>
      <stop offset=".74" stop-color="#79bdce"/>
      <stop offset=".83" stop-color="#68aec3"/>
      <stop offset=".91" stop-color="#529bb4"/>
      <stop offset=".98" stop-color="#3884a3"/>
      <stop offset=".99" stop-color="#3582a1"/>
    </linearGradient>
  </defs>
  <g>
    <path class="cls-1" d="M81.43,142.28c0-17.21-14-31.21-31.21-31.21s-31.18,13.97-31.2,31.16c0,0,0,0,0,.01v83.32c0,2.45,1.99,4.44,4.44,4.44s4.44-1.99,4.44-4.44v-61.52c5.67,5.82,13.58,9.44,22.33,9.44,17.21,0,31.21-14,31.21-31.21Z"/>
    <path class="cls-2" d="M27.89,142.28c0-12.31,10.02-22.33,22.33-22.33s22.33,10.02,22.33,22.33-10.02,22.33-22.33,22.33-22.33-10.02-22.33-22.33Z"/>
  </g>
  <path class="cls-3" d="M139.4,79.94L66.85,6.92C62.42,2.46,56.51,0,50.22,0h0c-6.29,0-12.19,2.46-16.63,6.91L1.37,39.31c-1.73,1.74-1.72,4.55.02,6.27,1.74,1.73,4.55,1.72,6.27-.02L39.88,13.17c2.76-2.77,6.43-4.3,10.34-4.3h0c3.91,0,7.58,1.53,10.34,4.3l72.54,73.01c2.73,2.76,4.23,6.42,4.22,10.31v128.63c0,8.04-6.54,14.58-14.58,14.58H23.45c-8.04,0-14.58-6.54-14.58-14.58v-81.97c0-22.71,18.78-42.05,41.02-42.22,11.52-.11,22.7,4.71,30.58,13.16,7.99,8.57,11.88,19.77,10.97,31.52-1.55,19.79-17.61,36.06-37.36,37.84-3.62.32-7.23.19-10.75-.4-2.42-.41-4.7,1.22-5.11,3.64-.41,2.42,1.22,4.7,3.64,5.11,4.26.72,8.64.88,13.01.48,24.01-2.17,43.53-21.93,45.41-45.99,1.11-14.26-3.62-27.85-13.32-38.26-9.57-10.27-23.09-16.05-37.14-15.98-27.01.21-49.82,23.61-49.82,51.1v81.97c0,12.93,10.52,23.45,23.45,23.45h99.28c12.93,0,23.45-10.52,23.45-23.45V96.51c.02-6.25-2.39-12.13-6.79-16.58Z"/>
</svg>